<svg xmlns="http://www.w3.org/2000/svg" width="15.01" height="15.01" viewBox="0 0 15.01 15.01">
  <g id="key-6298" transform="translate(126.034 126.035)">
    <g id="Group_2" data-name="Group 2" transform="translate(-126.034 -126.035)">
      <path id="Path_78" data-name="Path 78" d="M.5,15.012a.5.5,0,0,1-.5-.536l.149-2.109A.5.5,0,0,1,.3,12.049L5.626,6.72a4.875,4.875,0,1,1,7.96,1.6h0A4.869,4.869,0,0,1,8.293,9.387L7.107,10.573a.5.5,0,0,1-.281.141l-1.159.171L5.5,12.043a.5.5,0,0,1-.422.422l-1.157.171L3.746,13.8a.5.5,0,0,1-.141.281l-.64.64a.5.5,0,0,1-.319.145L.537,15.01Zm.635-2.388-.1,1.347,1.347-.1.391-.391.2-1.363A.5.5,0,0,1,3.4,11.7l1.157-.171.171-1.157a.5.5,0,0,1,.422-.422l1.363-.2L7.831,8.435a.5.5,0,0,1,.577-.094A3.875,3.875,0,1,0,6.673,6.6a.5.5,0,0,1-.094.577Zm12.1-4.656h0Z" transform="translate(-0.002 -0.001)" fill="#fff"/>
      <path id="Path_79" data-name="Path 79" d="M160.371,41.938a1.627,1.627,0,1,1,1.15-.476h0A1.616,1.616,0,0,1,160.371,41.938Zm.8-.83h0Zm-.8-1.423a.626.626,0,0,0-.443,1.069.641.641,0,0,0,.885,0h0a.626.626,0,0,0-.443-1.069Z" transform="translate(-149.291 -36.381)" fill="#fff"/>
    </g>
  </g>
</svg>
