<svg xmlns="http://www.w3.org/2000/svg" width="20.143" height="15.117" viewBox="0 0 20.143 15.117">
  <g id="mail-5888" transform="translate(126.036 94.589)">
    <g id="Group_1" data-name="Group 1" transform="translate(-126.036 -94.589)">
      <path id="Path_76" data-name="Path 76" d="M18.1,46.564H2.039A2.041,2.041,0,0,1,0,44.525V33.486a2.041,2.041,0,0,1,2.039-2.039H18.1a2.041,2.041,0,0,1,2.039,2.039V44.525A2.041,2.041,0,0,1,18.1,46.564ZM2.039,32.79a.7.7,0,0,0-.7.7V44.525a.7.7,0,0,0,.7.7H18.1a.7.7,0,0,0,.7-.7V33.486a.7.7,0,0,0-.7-.7Z" transform="translate(0 -31.447)" fill="#fff"/>
      <path id="Path_77" data-name="Path 77" d="M16.5,48.7a4.322,4.322,0,0,1-3.187-1.407L6.982,40.348l.993-.9L14.3,46.385a2.97,2.97,0,0,0,4.39,0l6.326-6.941.992.9-6.326,6.941A4.321,4.321,0,0,1,16.5,48.7Z" transform="translate(-6.424 -38.805)" fill="#fff"/>
      <rect id="Rectangle_16" data-name="Rectangle 16" width="8.724" height="1.343" transform="translate(0.594 13.57) rotate(-45.146)" fill="#fff"/>
      <rect id="Rectangle_17" data-name="Rectangle 17" width="1.343" height="8.725" transform="translate(12.444 8.332) rotate(-44.85)" fill="#fff"/>
    </g>
  </g>
</svg>
