<svg xmlns="http://www.w3.org/2000/svg" width="18.433" height="18.433" viewBox="0 0 18.433 18.433">
  <g id="user-3295" transform="translate(126.036 126.036)">
    <g id="Group_3" data-name="Group 3" transform="translate(-126.036 -126.036)">
      <path id="Path_80" data-name="Path 80" d="M78.854,56.089a3.722,3.722,0,1,1,3.722-3.722A3.727,3.727,0,0,1,78.854,56.089Z" transform="translate(-69.637 -45.087)" fill="#fff"/>
      <path id="Path_81" data-name="Path 81" d="M9.217,0a9.217,9.217,0,1,0,9.217,9.217A9.227,9.227,0,0,0,9.217,0Zm6.108,14.356a7.434,7.434,0,0,0-2.9-2.526,1.7,1.7,0,0,0-1.484.01,3.992,3.992,0,0,1-3.447,0,1.7,1.7,0,0,0-1.484-.01,7.436,7.436,0,0,0-2.9,2.526,7.988,7.988,0,1,1,12.216,0Z" fill="#fff"/>
    </g>
  </g>
</svg>
